# AST/ASF file generated using VICON BodyLanguage
# -----------------------------------------------
:version 1.10
:name VICON
:units
  mass 1.0
  length 0.45
  angle deg
:documentation
   .ast/.asf automatically generated from VICON data using
   VICON BodyBuilder and BodyLanguage model FoxedUp or BRILLIANT.MOD
:root
   order TX TY TZ RX RY RZ
   axis XYZ
   position 0 0 0  
   orientation 0 0 0 
:bonedata
  begin
     id 1 
     name lhipjoint
     direction 0.521689 -0.742065 0.420928 
     length 2.47002 
     axis 0 0 0  XYZ
  end
  begin
     id 2 
     name lfemur
     direction 0.34202 -0.939693 0  
     length 7.24654  
     axis 0 0 20  XYZ
    dof rx ry rz
    limits (-160.0 20.0)
           (-70.0 70.0)
           (-60.0 70.0)
  end
  begin
     id 3 
     name ltibia
     direction 0.34202 -0.939693 0   
     length 8.04849   
     axis 0 0 20   XYZ
    dof rx
    limits (-10.0 170.0)
  end
  begin
     id 4 
     name lfoot
     direction 0.0745411 -0.2048 0.975961   
     length 1.72367   
     axis -90 7.62852e-016 20   XYZ
    dof rx rz
    limits (-45.0 90.0)
           (-70.0 20.0)
  end
  begin
     id 5 
     name ltoes
     direction 1.53556e-011 -4.21901e-011 1   
     length 0.87311   
     axis -90 7.62852e-016 20   XYZ
    dof rx
    limits (-90.0 20.0)
  end
  begin
     id 6 
     name rhipjoint
     direction -0.52849 -0.738415 0.418857   
     length 2.48223  
     axis 0 0 0  XYZ 
  end
  begin
     id 7 
     name rfemur
     direction -0.34202 -0.939693 0   
     length 7.15571   
     axis 0 0 -20   XYZ
    dof rx ry rz
    limits (-160.0 20.0)
           (-70.0 70.0)
           (-70.0 60.0)
  end
  begin
     id 8 
     name rtibia
     direction -0.34202 -0.939693 0   
     length 7.81659   
     axis 0 0 -20   XYZ
    dof rx
    limits (-10.0 170.0)
 end
 begin
     id 9 
     name rfoot
     direction -0.0917348 -0.252039 0.963359   
     length 1.84382  
     axis -90 -7.62852e-016 -20   XYZ
    dof rx rz
    limits (-45.0 90.0)
           (-20.0 70.0)
  end
  begin
     id 10 
     name rtoes
     direction -1.53551e-011 -4.21879e-011 1   
     length 0.927771   
     axis -90 -7.62852e-016 -20   XYZ
    dof rx
    limits (-90.0 20.0)
  end
  begin
     id 11 
     name lowerback
     direction 0.00583058 0.999822 0.0179296   
     length 2.1429   
     axis 0 0 0   XYZ
    dof rx ry rz
    limits (-20.0 45.0)
           (-30.0 30.0)
           (-30.0 30.0)
  end
  begin
     id 12 
     name upperback
     direction -0.0137999 0.999752 -0.0175071   
     length 2.14252   
     axis 0 0 0   XYZ
    dof rx ry rz
    limits (-20.0 45.0)
           (-30.0 30.0)
           (-30.0 30.0)
  end
  begin
     id 13 
     name thorax
     direction -0.0158036 0.99955 -0.0254909   
     length 2.1383   
     axis 0 0 0   XYZ
    dof rx ry rz
    limits (-20.0 45.0)
           (-30.0 30.0)
           (-30.0 30.0)
  end
  begin
     id 14 
     name lowerneck
     direction -0.0101179 0.999403 -0.0330262   
     length 1.65808   
     axis 0 0 0   XYZ
    dof rx ry rz
    limits (-20.0 45.0)
           (-30.0 30.0)
           (-30.0 30.0)
  end
  begin
     id 15 
     name upperneck
     direction 0.0497734 0.995978 -0.074501   
     length 1.5897   
     axis 0 0 0   XYZ
    dof rx ry rz
    limits (-20.0 45.0)
           (-30.0 30.0)
           (-30.0 30.0)
  end
  begin
     id 16
     name head
     direction 0.0189524 0.999519 -0.0245438  
     length 1.74024  
     axis 0 0 0   XYZ
    dof rx ry rz
    limits (-20.0 45.0)
           (-30.0 30.0)
           (-30.0 30.0)
  end
  begin
     id 17 
     name lclavicle
     direction 0.945604 0.324422 0.0241537  
     length 3.59089  
     axis 0 0 0   XYZ
    dof ry rz
    limits (-20.0 10.0)
           (0.0 20.0)
  end
  begin
     id 18 
     name lhumerus
     direction 1 -4.48964e-011 -2.63524e-027   
     length 5.2391   
     axis 180 -30 -90   XYZ
    dof rx ry rz
    limits (-60.0 90.0)
           (-90.0 90.0)
           (-90.0 90.0)
  end
  begin
     id 19
     name lradius
     direction 1 -4.48969e-011 3.86978e-028   
     length 3.31467   
     axis 180 -30 -90   XYZ
    dof rx
    limits (-10.0 170.0)
  end
  begin
     id 20
     name lwrist
     direction 1 -4.48963e-011 7.20928e-028   
     length 1.65734   
     axis -5.52449e-016 90 90   XYZ
    dof ry
    limits (-180.0 0.0)
 end
  begin
     id 21 
     name lhand
     direction 1 -4.48964e-011 1.44186e-027   
     length 0.9659   
     axis -9.20027e-016 90 90   XYZ
    dof rx rz
    limits (-90.0 90.0)
           (-45.0 45.0)
  end
  begin
     id 22 
     name lfingers
     direction 1 -4.48965e-011 2.88371e-027   
     length 0.778733   
     axis -1.84005e-015 90 90   XYZ
    dof rx
    limits (0.0 90.0)
  end
  begin
     id 23
     name lthumb
     direction 0.707107 -6.34931e-011 0.707107   
     length 1.11811   
     axis -90 45 2.85299e-015   XYZ
    dof rx rz
    limits (-45.0 45.0)
           (-45.0 45.0)
  end
  begin
     id 24 
     name rclavicle
     direction -0.923762 0.370785 0.0958234   
     length 3.54196  
     axis 0 0 0   XYZ 
    dof ry rz
    limits (-10.0 20.0)
           (-20.0 0.0)
  end
  begin
     id 25 
     name rhumerus
     direction -1 -4.48966e-011 1.18702e-017  
     length 5.30252   
     axis 180 30 90   XYZ
    dof rx ry rz
    limits (-90.0 60.0)
           (-90.0 90.0)
           (-90.0 90.0)
  end
  begin
     id 26 
     name rradius
     direction -1 -4.48966e-011 4.46736e-027   
     length 3.67875   
     axis 180 30 90   XYZ
    dof rx
    limits (-10.0 170.0)
  end
  begin
     id 27 
     name rwrist
     direction -1 -4.48966e-011 7.20928e-028   
     length 1.83937   
     axis -5.52449e-016 -90 -90   XYZ
    dof ry
    limits (-180.0 0.0)
  end
  begin
     id 28
     name rhand
     direction -1 -4.48973e-011 1.44186e-027   
     length 0.594811   
     axis -9.20027e-016 -90 -90   XYZ
    dof rx rz
    limits (-90.0 90.0)
           (-45.0 45.0)
  end
  begin
     id 29
     name rfingers
     direction -1 -4.48963e-011 2.88371e-027   
     length 0.479552   
     axis -1.84005e-015 -90 -90   XYZ
    dof rx
    limits (0.0 90.0)
  end
  begin
     id 30
     name rthumb
     direction -0.707107 -6.34932e-011 0.707107   
     length 0.688544   
     axis -90 -45 -2.85299e-015   XYZ
    dof rx rz
    limits (-45.0 45.0)
           (-45.0 45.0)
  end
:hierarchy
  begin
    root lhipjoint rhipjoint lowerback
    lhipjoint lfemur
    lfemur ltibia
    ltibia lfoot
    lfoot ltoes
    rhipjoint rfemur
    rfemur rtibia
    rtibia rfoot
    rfoot rtoes
    lowerback upperback
    upperback thorax
    thorax lowerneck lclavicle rclavicle
    lowerneck upperneck
    upperneck head
    lclavicle lhumerus
    lhumerus lradius
    lradius lwrist
    lwrist lhand lthumb
    lhand lfingers
    rclavicle rhumerus
    rhumerus rradius
    rradius rwrist
    rwrist rhand rthumb
    rhand rfingers
  end

#!OML:ASF E:\acrobat2\Project_11_07_03\Capture day 1\Session 1\Acrobat.ASF
:FULLY-SPECIFIED
:DEGREES
148
root 6.46343 18.0907 -32.0389 4.16305 3.97527 1.18681
lowerback -6.66507 0.656779 -0.307291
upperback -1.61481 0.93484 -1.56486
thorax 2.09258 0.467113 -1.36004
lowerneck -0.458796 -2.50695 -0.774782
upperneck 5.02088 -3.49843 3.59288
head 1.72633 -1.69101 1.19744
rclavicle 2.5842e-015 -3.97569e-016
rhumerus -41.5152 -10.5597 -75.87
rradius 23.1381
rwrist 9.46863
rhand 4.98161 -22.7106
rfingers 7.12502
rthumb 30.3524 -50.2335
lclavicle 2.5842e-015 -3.97569e-016
lhumerus -32.6727 -8.10034 85.8957
lradius 22.168
lwrist 7.72668
lhand -7.19009 -11.3663
lfingers 7.12502
lthumb 18.688 17.756
rfemur 4.62028 9.69729 20.7206
rtibia 0.491123
rfoot -20.1731 -20.3547
rtoes 3.52818
lfemur 0.0999953 -1.99813 -17.8472
ltibia 3.55872
lfoot -4.12288 -7.21084
ltoes 27.5994
149
root 6.46664 18.0905 -32.0355 4.20759 3.96661 1.17658
lowerback -6.61883 0.650672 -0.321937
upperback -1.67155 0.925762 -1.54369
thorax 2.00762 0.462275 -1.33156
lowerneck -0.603602 -2.53857 -0.813608
upperneck 5.2531 -3.5462 3.56387
head 1.82805 -1.71216 1.19222
rclavicle -6.44808e-015 2.38542e-015
rhumerus -41.5323 -10.5176 -75.8594
rradius 23.1695
rwrist 9.48185
rhand 4.89061 -22.7274
rfingers 7.12502
rthumb 30.2656 -50.2662
lclavicle -6.44808e-015 2.38542e-015
lhumerus -32.6588 -8.11736 85.9589
lradius 22.1028
lwrist 7.71395
lhand -7.37515 -12.1133
lfingers 7.12502
lthumb 18.51 17.026
rfemur 4.57629 9.56233 20.6812
rtibia 0.49252
rfoot -20.2077 -20.2501
rtoes 3.5209
lfemur 0.0721197 -2.10144 -17.8754
ltibia 3.54109
lfoot -4.16888 -7.13864
ltoes 27.6048
150
root 6.46791 18.0903 -32.0328 4.23447 3.98185 1.20753
lowerback -6.60736 0.645664 -0.364642
upperback -1.67508 0.922096 -1.55679
thorax 1.99707 0.460289 -1.32151
lowerneck -0.728943 -2.57858 -0.830201
upperneck 5.39189 -3.60475 3.57814
head 1.89737 -1.73862 1.19698
rclavicle 6.48535e-015 5.56597e-015
rhumerus -41.449 -10.6228 -75.8483
rradius 23.1527
rwrist 9.55498
rhand 4.67999 -22.6666
rfingers 7.12502
rthumb 30.0647 -50.2422
lclavicle 6.48535e-015 5.56597e-015
lhumerus -32.6112 -8.25151 86.0135
lradius 22.1451
lwrist 7.8711
lhand -7.58701 -13.3913
lfingers 7.12502
lthumb 18.3062 15.7673
rfemur 4.55456 9.4993 20.6242
rtibia 0.459184
rfoot -20.1805 -20.1981
rtoes 3.57101
lfemur 0.0484185 -2.12816 -17.9278
ltibia 3.55675
lfoot -4.15649 -7.14026
ltoes 27.6511
151
root 6.46861 18.0897 -32.0307 4.25449 3.93988 1.18445
lowerback -6.62263 0.677095 -0.343783
upperback -1.70194 0.962769 -1.57595
thorax 1.97944 0.480589 -1.34961
lowerneck -0.705739 -2.56851 -0.807239
upperneck 5.53581 -3.5979 3.60988
head 1.94009 -1.73269 1.2034
rclavicle 8.60986e-015 1.70955e-014
rhumerus -41.4458 -10.648 -75.8969
rradius 23.1889
rwrist 9.52228
rhand 4.59368 -22.6697
rfingers 7.12502
rthumb 29.9823 -50.2602
lclavicle 8.60986e-015 1.70955e-014
lhumerus -32.66 -8.42732 86.04
lradius 22.2634
lwrist 7.98896
lhand -7.53606 -14.0297
lfingers 7.12502
lthumb 18.3552 15.1243
rfemur 4.5134 9.50509 20.6397
rtibia 0.453074
rfoot -20.0948 -20.1379
rtoes 4.11261
lfemur 0.0459546 -2.07996 -17.8899
ltibia 3.54309
lfoot -4.16602 -7.15496
ltoes 28.1549
152
root 6.46936 18.0898 -32.0287 4.26246 3.91731 1.06664
lowerback -6.65428 0.758008 -0.196043
upperback -1.78 1.06093 -1.62527
thorax 1.92237 0.529792 -1.47548
lowerneck -0.413455 -2.57496 -0.725523
upperneck 5.70612 -3.61739 3.69836
head 1.94444 -1.73981 1.22011
rclavicle 2.62893e-014 -4.77083e-015
rhumerus -41.648 -10.6884 -75.9776
rradius 23.2862
rwrist 9.38093
rhand 4.55334 -22.7103
rfingers 7.12502
rthumb 29.9438 -50.3078
lclavicle 2.62893e-014 -4.77083e-015
lhumerus -32.7485 -8.74858 86.0584
lradius 22.2674
lwrist 8.05064
lhand -7.44778 -14.0178
lfingers 7.12502
lthumb 18.4401 15.1281
rfemur 4.48221 9.55842 20.7945
rtibia 0.534895
rfoot -20.1095 -20.1007
rtoes 4.93584
lfemur 0.0387584 -2.02849 -17.7311
ltibia 3.55376
lfoot -4.24744 -7.16292
ltoes 27.6478
153
root 6.47041 18.0902 -32.0256 4.25305 3.9449 1.00322
lowerback -6.67197 0.716604 -0.145568
upperback -1.60986 1.00435 -1.59477
thorax 2.10634 0.502568 -1.4758
lowerneck -0.85265 -2.67066 -0.627471
upperneck 5.61453 -3.73709 3.51146
head 1.9883 -1.79814 1.13642
rclavicle 2.04997e-015 8.34896e-015
rhumerus -41.229 -10.5062 -76.1892
rradius 23.3429
rwrist 9.16474
rhand 4.51218 -22.8127
rfingers 7.12502
rthumb 29.9046 -50.4172
lclavicle 2.04997e-015 8.34896e-015
lhumerus -32.2854 -8.65127 86.0012
lradius 22.1649
lwrist 8.10198
lhand -7.49808 -13.8789
lfingers 7.12502
lthumb 18.3917 15.2716
rfemur 4.50166 9.62538 20.8996
rtibia 0.589964
rfoot -20.1357 -20.1944
rtoes 4.91394
lfemur 0.0335487 -2.03305 -17.655
ltibia 3.59663
lfoot -4.31096 -7.16009
ltoes 26.7161
154
root 6.47381 18.0897 -32.022 4.23554 3.91699 1.00082
lowerback -6.69447 0.747753 -0.0972667
upperback -1.57294 1.04456 -1.64566
thorax 2.15973 0.523158 -1.55152
lowerneck -0.81798 -2.71028 -0.587244
upperneck 5.5121 -3.79054 3.56409
head 1.95054 -1.82435 1.14569
rclavicle 1.12438e-014 -1.98785e-015
rhumerus -41.2056 -10.4951 -76.3367
rradius 23.5034
rwrist 9.0004
rhand 4.60412 -23.1923
rfingers 7.12502
rthumb 29.9923 -50.7809
lclavicle 1.12438e-014 -1.98785e-015
lhumerus -32.2091 -8.79417 85.9678
lradius 22.218
lwrist 8.23983
lhand -7.49147 -13.7232
lfingers 7.12502
lthumb 18.3981 15.4268
rfemur 4.54222 9.55774 20.8762
rtibia 0.55453
rfoot -20.0739 -20.2375
rtoes 4.16543
lfemur 0.0680486 -2.09946 -17.6948
ltibia 3.60294
lfoot -4.34523 -7.08722
ltoes 26.3881
